<?xml version="1.0" encoding="utf-8"?>
<!DOCTYPE svg PUBLIC "-//W3C//DTD SVG 1.1//EN" "http://www.w3.org/Graphics/SVG/1.1/DTD/svg11.dtd">
<svg version="1.1" id="レイヤー_1" xmlns="http://www.w3.org/2000/svg" xmlns:xlink="http://www.w3.org/1999/xlink" x="0px"
	 y="0px" width="544.889px" height="180.248px" viewBox="0 0 544.889 180.248" enable-background="new 0 0 544.889 180.248"
	 xml:space="preserve">
<path fill="#FFFFFF" d="M305.334,89.315c0-17.448-14.132-31.637-31.499-31.637h-30.003v93.306h17.749v-30.159h9.122
	c0.773,1.06,21.741,30.159,21.741,30.159h21.769c0,0-23.135-32.284-24.715-34.488 M289.499,116.496 M261.582,75.437h12.254
	c7.582,0,13.743,6.227,13.743,13.879c0,7.579-6.161,13.75-13.743,13.75h-12.254V75.437z"/>
<g>
	<rect fill="none" width="544.889" height="180.248"/>
	<g>
		<g>
			<path fill="#B41D23" d="M360.169,90.136c0,47.972-38.922,86.913-86.934,86.913c-47.999,0-86.921-38.941-86.921-86.913
				c0-48.019,38.922-86.933,86.921-86.933C321.248,3.203,360.169,42.117,360.169,90.136z"/>
			<path fill="#FFFFFF" d="M290.296,102.308c9.652-5.438,15.836-15.87,15.836-27.19c0-17.45-14.131-31.634-31.499-31.634h-30.001
				v93.311h17.751c0,0,0-27.748,0-30.166c1.93,0,8.068,0,9.123,0c0.769,1.037,21.737,30.166,21.737,30.166h21.771
				C315.015,136.794,291.877,104.47,290.296,102.308z M262.383,61.218c2.176,0,12.25,0,12.25,0c7.584,0,13.744,6.24,13.744,13.899
				c0,7.559-6.16,13.742-13.744,13.742c0,0-10.074,0-12.25,0C262.383,86.519,262.383,63.547,262.383,61.218z"/>
		</g>
		<g>
			<path fill="#040000" d="M544.889,24.846V6.686H365.283v18.16c0,0,70.624,0,78.188,0c0,6.304,0,26.657,0,26.657
				c0,6.983-0.136,10.714-0.461,15.737c-7.055,0-72.145,0-72.145,0v18.367c0,0,60.36,0,69.347,0
				c-5.12,20.918-21.377,53.835-72.531,71.972l-2.818,1.005v21.304l5.748-2.215c54.04-20.691,74.306-44.077,83.996-73.759
				c11.658,30.24,39.409,54.469,84.376,73.796l5.897,2.538v-22.005l-2.915-0.966c-42.327-13.792-67.547-45.769-74.435-71.67
				c9.07,0,71.191,0,71.191,0V67.24c0,0-68.643,0-75.3,0c-0.469-3.648-0.863-8.064-0.863-15.737c0,0,0-20.353,0-26.657
				C470.169,24.846,544.889,24.846,544.889,24.846z"/>
			<g>
				<polygon fill="#040000" points="4.254,5.879 4.254,25.732 40.803,45.593 40.803,25.732 				"/>
				<path fill="#040000" d="M175.619,102.841V83.415l-36.636-19.913v19.823l35.874,19.516c-16.325,0-69.61,0-76.031,0
					c0-1.646,0-4.172,0-6.863h29.822V13.82h-31.77L101.113,0H81.561l-4.239,13.82H51.153v82.157h29.299c0,2.691,0,5.218,0,6.863
					c-6.356,0-58.624,0-75.433,0L40.803,83.4V63.547L4.287,83.4v37.236c12.701,0,49.059,0,61.298,0
					c-13.009,12.395-33.154,27.031-62.744,37.266L0,158.903v18.739l5.662-2.057c32.082-11.547,57.164-26.496,74.791-44.438
					c0,14.222,0,49.101,0,49.101h18.374c0,0,0-34.849,0-49.068c17.879,18.236,43.101,33.036,75.197,44.082l5.601,1.923v-18.682
					l-2.898-0.953c-29.682-9.86-49.934-24.479-63.022-36.914c12.427,0,49.716,0,61.94,0v-17.795
					C175.637,102.841,175.634,102.841,175.619,102.841z M69.316,30.463c6.409,0,34.589,0,41.002,0c0,4.452,0,10.647,0,15.077
					c-6.413,0-34.593,0-41.002,0C69.316,41.11,69.316,34.916,69.316,30.463z M69.316,79.127c0-4.719,0-12.37,0-17.112
					c6.409,0,34.589,0,41.002,0c0,4.742,0,12.393,0,17.112C103.906,79.127,75.726,79.127,69.316,79.127z"/>
				<polygon fill="#040000" points="175.619,25.732 175.619,5.879 138.983,25.777 138.983,45.646 				"/>
			</g>
		</g>
	</g>
</g>
</svg>
